<svg width="23" height="23" viewBox="0 0 23 23" fill="none" xmlns="http://www.w3.org/2000/svg">
<path d="M22.8562 10.7706C22.7649 10.5356 22.6281 10.3208 22.4535 10.1387L12.8662 0.563212C12.6874 0.384652 12.4752 0.24301 12.2416 0.146374C12.008 0.0497385 11.7576 0 11.5048 0C10.9942 0 10.5044 0.202593 10.1434 0.563212C9.9646 0.741772 9.82278 0.953753 9.72603 1.18705C9.62927 1.42035 9.57947 1.6704 9.57947 1.92292C9.57947 2.43292 9.78232 2.92202 10.1434 3.28264L16.471 9.58328H1.91746C1.40892 9.58328 0.921207 9.78505 0.561612 10.1442C0.202018 10.5033 0 10.9905 0 11.4984C0 12.0063 0.202018 12.4934 0.561612 12.8525C0.921207 13.2117 1.40892 13.4135 1.91746 13.4135H16.471L10.1434 19.7141C9.96366 19.8921 9.82101 20.1039 9.72367 20.3373C9.62632 20.5707 9.5762 20.821 9.5762 21.0738C9.5762 21.3266 9.62632 21.5769 9.72367 21.8103C9.82101 22.0437 9.96366 22.2555 10.1434 22.4335C10.3216 22.613 10.5337 22.7555 10.7674 22.8527C11.001 22.9499 11.2517 23 11.5048 23C11.7579 23 12.0085 22.9499 12.2422 22.8527C12.4759 22.7555 12.6879 22.613 12.8662 22.4335L22.4535 12.8581C22.6281 12.6759 22.7649 12.4612 22.8562 12.2261C23.0479 11.7599 23.0479 11.2369 22.8562 10.7706Z" fill="white"/>
</svg>
